<?xml version="1.0" encoding="UTF-8" ?>
<svg width="1635" height="964" viewBox="0 0 1635 964" xmlns="http://www.w3.org/2000/svg" version="1.1">
<circle cx="828.5691824802253" cy="477.60868764750353" r="12.149989447652025" fill="#000000" />
<circle cx="781.7402030366537" cy="411.1532643792001" r="8.792379452578357" fill="#000000" />
<circle cx="903.198690400672" cy="570.0866511239728" r="14.604060616091498" fill="#000000" />
<circle cx="876.3993374610325" cy="687.8390602637037" r="22.189186885624608" fill="#000000" />
<circle cx="873.8098405545968" cy="523.4825100722916" r="14.20328944552275" fill="#000000" />
<circle cx="939.4888589740297" cy="636.234017029891" r="11.006960818298433" fill="#000000" />
<circle cx="692.2319873611318" cy="492.8671237907128" r="23.63529876008759" fill="#000000" />
<circle cx="911.1159326861099" cy="422.3738433088513" r="13.347984162678157" fill="#000000" />
<circle cx="837.3549020765112" cy="328.6621134768086" r="12.204633036530488" fill="#000000" />
<circle cx="1066.4853799079247" cy="461.20877325483286" r="17.095344508205713" fill="#000000" />
<circle cx="990.7739592595052" cy="598.3380354953485" r="19.04163400552879" fill="#000000" />
<circle cx="472.7442222454772" cy="492.46729890851174" r="24.99251557673263" fill="#000000" />
<circle cx="858.0995460192046" cy="452.517837301963" r="9.397648491276787" fill="#000000" />
<circle cx="711.2079616070096" cy="343.14766843363134" r="10.412059223436811" fill="#000000" />
<circle cx="772.2402850128532" cy="630.9286924790063" r="21.576712784160563" fill="#000000" />
<circle cx="674.9724579703743" cy="331.14646931666584" r="24.94994247589809" fill="#000000" />
<circle cx="824.7422449279968" cy="505.03479268845575" r="10.863412373812583" fill="#000000" />
<circle cx="1020.665151566366" cy="157.3182260042915" r="10.494373148886162" fill="#000000" />
<circle cx="621.2187907159347" cy="414.8398055532615" r="20.00180981240011" fill="#000000" />
<circle cx="601.0020521001019" cy="532.9221294062925" r="20.734009498358773" fill="#000000" />
<circle cx="742.799414635881" cy="538.6321687904929" r="8.322372107716417" fill="#000000" />
<circle cx="873.2108301939692" cy="337.6453414186144" r="22.549825961822627" fill="#000000" />
<circle cx="1044.8723528704786" cy="688.0474082585167" r="23.681368896386445" fill="#000000" />
<circle cx="547.1350574855724" cy="365.8933991202487" r="10.008027141230135" fill="#000000" />
<circle cx="930.7356103207504" cy="855.2985132606497" r="13.44509113820822" fill="#000000" />
<circle cx="543.8582818282291" cy="602.653980429348" r="17.96229658117943" fill="#000000" />
<circle cx="1143.7153213559084" cy="653.595239029986" r="23.902782402276706" fill="#000000" />
<circle cx="823.8244369885319" cy="539.5168201212896" r="17.92808960583968" fill="#000000" />
<circle cx="936.2729051823209" cy="338.3198108514397" r="11.80295628429242" fill="#000000" />
<circle cx="425.83577509841115" cy="635.1824842951917" r="14.907790661083341" fill="#000000" />
<circle cx="819.9039771842354" cy="222.41955400163795" r="9.719770611597756" fill="#000000" />
<circle cx="1150.3914127325634" cy="490.7955976340628" r="14.695752654767142" fill="#000000" />
<circle cx="877.7244469210443" cy="488.984090137965" r="13.385492931815254" fill="#000000" />
<circle cx="706.4241356435955" cy="835.2568706275244" r="8.250174005426876" fill="#000000" />
<circle cx="676.1692351507935" cy="257.0246678411605" r="14.86767435463828" fill="#000000" />
<circle cx="815.9464482518205" cy="391.7229436388537" r="15.197537425699014" fill="#000000" />
<circle cx="957.4922187297311" cy="470.6682504442731" r="14.34303422652462" fill="#000000" />
<circle cx="1063.9158442510718" cy="735.9990292785185" r="12.208736387525981" fill="#000000" />
<circle cx="1097.0011093844798" cy="568.687277052171" r="22.8874213233929" fill="#000000" />
<circle cx="575.3182303279943" cy="803.8586978436094" r="15.767061796915463" fill="#000000" />
<circle cx="579.8707132130108" cy="581.8228165857146" r="14.469521078357873" fill="#000000" />
<circle cx="860.5953654078962" cy="422.60470496093274" r="16.961455836779894" fill="#000000" />
<circle cx="1096.198716971029" cy="249.2072499922244" r="9.208685621977281" fill="#000000" />
<circle cx="600.1110678211254" cy="657.9147679946503" r="12.551822030609456" fill="#000000" />
<circle cx="862.1847156445559" cy="560.4169565543697" r="11.071058658604429" fill="#000000" />
<circle cx="696.3590160633798" cy="545.6574300213547" r="12.239457218058865" fill="#000000" />
<circle cx="430.798696713401" cy="591.0902952195464" r="19.956975515268784" fill="#000000" />
<circle cx="970.6203338182015" cy="700.8737121985105" r="8.433141605555933" fill="#000000" />
<circle cx="734.2814065676773" cy="428.0653965411322" r="16.79547971790503" fill="#000000" />
<circle cx="634.8411555249927" cy="674.8142626155251" r="8.263863691401491" fill="#000000" />
<circle cx="974.5369415622844" cy="286.39132235196604" r="12.034581846561837" fill="#000000" />
<circle cx="844.0029390258769" cy="632.2393721916507" r="22.680349215641694" fill="#000000" />
<circle cx="968.2712687231178" cy="316.52331335006846" r="15.691344337359855" fill="#000000" />
<circle cx="958.9596915029819" cy="107.75105292159122" r="13.395310554359918" fill="#000000" />
<circle cx="1004.878672146773" cy="400.77478544466504" r="10.176021126884464" fill="#000000" />
<circle cx="612.2650375989549" cy="636.7964619936092" r="8.736025401564442" fill="#000000" />
<circle cx="867.6232945507452" cy="111.5546412595479" r="16.726045596150477" fill="#000000" />
<circle cx="528.6425041760334" cy="640.4021964496192" r="10.746353588610154" fill="#000000" />
<circle cx="1002.9907342333145" cy="848.6456962159534" r="11.51373752291214" fill="#000000" />
<circle cx="912.2623974132514" cy="221.90514640257345" r="20.574993826413348" fill="#000000" />
<circle cx="911.1332359065823" cy="92.17749664813391" r="14.620347084283388" fill="#000000" />
<circle cx="594.5975374847651" cy="267.38596155804646" r="17.173375615420348" fill="#000000" />
<circle cx="660.7584753507259" cy="840.434769077372" r="21.9900005713295" fill="#000000" />
<circle cx="1012.8675096633923" cy="263.54812791573704" r="8.246872160448454" fill="#000000" />
<circle cx="553.7300524926741" cy="438.9803084586759" r="18.95563273960701" fill="#000000" />
<circle cx="743.0319363530751" cy="867.4634796708331" r="20.655133823131653" fill="#000000" />
<circle cx="1188.589168131098" cy="360.54980071022794" r="19.315558261952766" fill="#000000" />
<circle cx="965.0371373987632" cy="531.5437476435158" r="15.689515986738225" fill="#000000" />
<circle cx="983.2394047029085" cy="450.96404181488913" r="16.261370860819646" fill="#000000" />
<circle cx="904.179927753835" cy="447.78548147791656" r="9.786781137110008" fill="#000000" />
<circle cx="649.6923982057269" cy="743.041567806971" r="17.857771847198357" fill="#000000" />
<circle cx="533.2630131387142" cy="721.5494324633843" r="18.899653061672" fill="#000000" />
<circle cx="665.6645510221039" cy="708.732830496025" r="12.613242935201837" fill="#000000" />
<circle cx="749.6210799478627" cy="574.5153798776232" r="9.970827780328115" fill="#000000" />
<circle cx="821.8039654663312" cy="181.8316897525919" r="18.290853234499835" fill="#000000" />
<circle cx="530.8008553079032" cy="178.3175990782521" r="19.66560798414644" fill="#000000" />
<circle cx="1057.621167150684" cy="294.0152766428548" r="11.497321861908308" fill="#000000" />
<circle cx="672.2539833161336" cy="413.379924788676" r="12.128782609884246" fill="#000000" />
<circle cx="794.7727490455745" cy="568.8309913717854" r="9.188401706639137" fill="#000000" />
<circle cx="681.4818158065432" cy="182.22253390321464" r="16.53557709639838" fill="#000000" />
<circle cx="1136.9422414341095" cy="385.72577350602444" r="11.614507236861702" fill="#000000" />
<circle cx="804.2733765038361" cy="498.0173517221929" r="9.013579794597941" fill="#000000" />
<circle cx="733.9181774243701" cy="257.4548634941581" r="20.58661657668496" fill="#000000" />
<circle cx="1019.9384482217263" cy="820.1055432662475" r="20.31453641283513" fill="#000000" />
<circle cx="1159.0846012522115" cy="521.5764132814564" r="13.81523463792804" fill="#000000" />
<circle cx="641.9738841314181" cy="624.5005783347096" r="22.995766358052506" fill="#000000" />
<circle cx="832.3899650317032" cy="355.9231694533678" r="14.358078981264029" fill="#000000" />
<circle cx="1194.9448672008016" cy="637.2839355350202" r="16.801560577591978" fill="#000000" />
<circle cx="768.7702869527711" cy="453.13823819796175" r="19.995251286544722" fill="#000000" />
<circle cx="994.1377602569967" cy="788.5935656082665" r="19.443051954493228" fill="#000000" />
<circle cx="1149.4720977838124" cy="249.30354649830971" r="17.818020017382878" fill="#000000" />
<circle cx="498.00688082048435" cy="333.14368577646144" r="13.475227722620026" fill="#000000" />
<circle cx="968.7033412525234" cy="238.31402573681285" r="10.02896176537289" fill="#000000" />
<circle cx="706.438658668023" cy="577.1489428773668" r="18.27720483038069" fill="#000000" />
<circle cx="1021.2389547447038" cy="458.5021016107998" r="11.290010470549836" fill="#000000" />
<circle cx="739.0652061019204" cy="713.2643306787171" r="19.230615654645128" fill="#000000" />
<circle cx="824.7516290104677" cy="743.8778773952884" r="14.535450945153674" fill="#000000" />
<circle cx="639.912831778603" cy="265.14831914026024" r="10.958553811959973" fill="#000000" />
<circle cx="858.8803135129345" cy="831.9855272061131" r="15.216847217734774" fill="#000000" />
<circle cx="416.486209220789" cy="359.6832390361435" r="10.9293141303146" fill="#000000" />
<circle cx="960.9922787156038" cy="375.915473251076" r="23.99036145235673" fill="#000000" />
<circle cx="1012.7672449191825" cy="513.1494176098668" r="15.253368192748294" fill="#000000" />
<circle cx="388.58654025316724" cy="478.7985350139975" r="17.98405111896956" fill="#000000" />
<circle cx="821.4519757400898" cy="257.2617475434778" r="24.47894016034159" fill="#000000" />
<circle cx="780.5367073094749" cy="489.3894636997874" r="10.776471571300167" fill="#000000" />
<circle cx="954.078837593058" cy="442.11132520619725" r="13.372283807905351" fill="#000000" />
<circle cx="1142.854491923884" cy="602.2207571629427" r="10.959917256659118" fill="#000000" />
<circle cx="860.9177796698026" cy="724.1999356983501" r="9.395255807962053" fill="#000000" />
<circle cx="820.9351804924427" cy="437.47286745565265" r="16.344706437526405" fill="#000000" />
<circle cx="818.9730571684282" cy="592.0820711792456" r="24.04141075586822" fill="#000000" />
<circle cx="742.083587290929" cy="516.7822502292346" r="9.202930925086825" fill="#000000" />
<circle cx="586.9551647950973" cy="372.9629117297692" r="12.004231941113279" fill="#000000" />
<circle cx="814.8426530262053" cy="780.639515070361" r="17.818571978920552" fill="#000000" />
<circle cx="1238.1660011537124" cy="435.4467876938025" r="13.10888908038886" fill="#000000" />
<circle cx="937.6712379512895" cy="500.3326526031677" r="15.882284869516294" fill="#000000" />
<circle cx="955.2675360900108" cy="833.4429233355908" r="11.03052434789209" fill="#000000" />
<circle cx="1067.942689555468" cy="270.81244801002885" r="10.393696457125438" fill="#000000" />
<circle cx="506.7824171337516" cy="683.621492251589" r="11.44454933701964" fill="#000000" />
<circle cx="982.8408670741148" cy="178.98074898378195" r="19.012521000973674" fill="#000000" />
<circle cx="724.495917285228" cy="189.18505755764477" r="15.898757970004413" fill="#000000" />
<circle cx="615.6025168513705" cy="813.5381319780156" r="12.032153598165234" fill="#000000" />
<circle cx="610.9274602748554" cy="778.2746638109489" r="13.05178542738783" fill="#000000" />
<circle cx="702.8634465312306" cy="662.5345145858876" r="15.645471587945076" fill="#000000" />
<circle cx="625.1769427748847" cy="706.9729076049764" r="19.420315703738247" fill="#000000" />
<circle cx="742.4442643759093" cy="117.15383675975693" r="24.166631116591375" fill="#000000" />
<circle cx="711.6655245862936" cy="616.0982375623242" r="16.073943767627288" fill="#000000" />
<circle cx="425.94297122568446" cy="422.68014388841357" r="20.707925426892654" fill="#000000" />
<circle cx="1006.9891094813895" cy="95.09119533655257" r="16.438837695552408" fill="#000000" />
<circle cx="687.4293047111522" cy="146.70840776672128" r="12.403641645924015" fill="#000000" />
<circle cx="732.5848663790532" cy="375.0096555963721" r="21.478860731985762" fill="#000000" />
<circle cx="781.718564728081" cy="177.7151281151211" r="17.22290876630521" fill="#000000" />
<circle cx="977.8869515257343" cy="658.1438223065775" r="25.007297897210222" fill="#000000" />
<circle cx="1033.1526606997988" cy="295.71417260387494" r="11.810231865015218" fill="#000000" />
<circle cx="897.8412428751826" cy="833.9564431701674" r="16.626245565033397" fill="#000000" />
<circle cx="923.7008631534329" cy="740.8941468245948" r="16.78211749278575" fill="#000000" />
<circle cx="428.2417611167971" cy="453.7057753552378" r="9.536743261516623" fill="#000000" />
<circle cx="592.3602733781847" cy="199.4528921136813" r="16.761540328058665" fill="#000000" />
<circle cx="1062.5646277136943" cy="112.18962919799986" r="15.460444457071407" fill="#000000" />
<circle cx="872.5954526899505" cy="143.56690923280217" r="13.128064124153479" fill="#000000" />
<circle cx="1241.332205092558" cy="481.9738824016591" r="25.036474802236366" fill="#000000" />
<circle cx="820.8200199274294" cy="676.7071480473015" r="23.673375809927165" fill="#000000" />
<circle cx="1133.576671915564" cy="297.57719293975083" r="20.830350532517578" fill="#000000" />
<circle cx="1049.8911243008065" cy="504.368997484316" r="12.109672433824771" fill="#000000" />
<circle cx="1042.3394852181857" cy="559.0518123049397" r="18.701095289684112" fill="#000000" />
<circle cx="754.3109612211392" cy="216.5372863891991" r="14.445042007936397" fill="#000000" />
<circle cx="873.1227989914041" cy="589.9455457778918" r="20.123850698339297" fill="#000000" />
<circle cx="921.3001288559739" cy="285.46042302343983" r="13.198239624731821" fill="#000000" />
<circle cx="752.2803284344618" cy="151.31616711233613" r="10.69976539915981" fill="#000000" />
<circle cx="437.8185837095376" cy="528.1355558119303" r="8.677912482114335" fill="#000000" />
<circle cx="772.8661758133873" cy="593.9858300791198" r="13.64786510581379" fill="#000000" />
<circle cx="651.6663380860283" cy="223.00023102341322" r="17.808795855693525" fill="#000000" />
<circle cx="448.82478819315435" cy="348.1776341083016" r="22.439665506436473" fill="#000000" />
<circle cx="700.9637432263721" cy="235.51564789017854" r="12.228757571347543" fill="#000000" />
<circle cx="489.6203716477858" cy="417.6631871126509" r="13.09241382951109" fill="#000000" />
<circle cx="640.0658412526926" cy="515.3854115481379" r="21.25726742487391" fill="#000000" />
<circle cx="681.1600383045923" cy="777.0207120230807" r="24.633419583060036" fill="#000000" />
<circle cx="596.1686245284334" cy="466.22642346372965" r="14.857044122088954" fill="#000000" />
<circle cx="593.6732803987708" cy="729.0794573620148" r="12.47275881639144" fill="#000000" />
<circle cx="1000.1330185744919" cy="137.28228579737527" r="14.984387841819276" fill="#000000" />
<circle cx="734.9187742349579" cy="65.21692246667993" r="19.062181033586864" fill="#000000" />
<circle cx="377.29259398669734" cy="554.7761228283462" r="12.555339485222806" fill="#000000" />
<circle cx="942.1320494676143" cy="813.0709033039057" r="13.13845567188445" fill="#000000" />
<circle cx="911.4091882939651" cy="161.89295899509307" r="11.464326148496411" fill="#000000" />
<circle cx="1077.3036477534583" cy="208.61951544742692" r="22.4114576695007" fill="#000000" />
<circle cx="1008.5523906720454" cy="563.9555914480334" r="13.386712162308909" fill="#000000" />
<circle cx="850.5485115125456" cy="910.3582278703847" r="14.715786669748036" fill="#000000" />
<circle cx="855.3547110425736" cy="198.44776683288455" r="15.62990093734923" fill="#000000" />
<circle cx="866.0856670525926" cy="787.5575635418741" r="24.608700679920247" fill="#000000" />
<circle cx="1007.8354516214308" cy="717.1515922717147" r="8.847814355953027" fill="#000000" />
<circle cx="798.2833232288644" cy="714.767434370549" r="13.221180123340176" fill="#000000" />
<circle cx="482.19054432724147" cy="706.7246693443153" r="15.573170176729286" fill="#000000" />
<circle cx="1130.121007552515" cy="767.3329874248598" r="12.643606673727014" fill="#000000" />
<circle cx="1071.6032729442497" cy="388.4133757688535" r="15.872010332860714" fill="#000000" />
<circle cx="565.6720791594844" cy="475.302729891539" r="11.781156577580216" fill="#000000" />
<circle cx="1174.090159409544" cy="461.5276251988711" r="14.725791652589145" fill="#000000" />
<circle cx="1240.7574860948437" cy="571.491357486772" r="8.592437237190518" fill="#000000" />
<circle cx="491.76795846884374" cy="555.6848181294141" r="10.726598161999368" fill="#000000" />
<circle cx="761.1885537155579" cy="755.4777826279708" r="21.490387679110164" fill="#000000" />
<circle cx="906.8740659803868" cy="487.2928764704534" r="9.390045538742946" fill="#000000" />
<circle cx="934.9147520834769" cy="562.972868041641" r="15.318395838235553" fill="#000000" />
<circle cx="659.8342104391422" cy="577.5731994801407" r="20.850587519962602" fill="#000000" />
<circle cx="896.2243025388359" cy="899.240048337432" r="9.171726184323099" fill="#000000" />
<circle cx="701.7540187737087" cy="900.0858481796878" r="17.506375002422526" fill="#000000" />
<circle cx="743.0045962359592" cy="484.4418154302267" r="12.685836827513409" fill="#000000" />
<circle cx="1028.3149479011095" cy="414.31031708338907" r="10.78876975095359" fill="#000000" />
<circle cx="788.2362955028633" cy="902.8743514246806" r="11.69177468489815" fill="#000000" />
<circle cx="1201.9716828277146" cy="512.8450343587004" r="23.099792485936888" fill="#000000" />
<circle cx="793.0752893721025" cy="761.0332809229859" r="10.771456064578743" fill="#000000" />
<circle cx="1025.2417131489024" cy="233.32376594936832" r="9.254098097837929" fill="#000000" />
<circle cx="1186.6549332993764" cy="581.5168571807485" r="14.847839843056079" fill="#000000" />
<circle cx="568.7557781383716" cy="124.8337738562218" r="12.960886656725753" fill="#000000" />
<circle cx="685.2694278671108" cy="377.5296062884755" r="13.521521745937108" fill="#000000" />
<circle cx="743.6927108153988" cy="803.7531769962386" r="21.296671123244337" fill="#000000" />
<circle cx="1040.7709965901645" cy="638.3103204427882" r="12.78960616084557" fill="#000000" />
<circle cx="624.149531108005" cy="375.6786202601336" r="16.70261851309491" fill="#000000" />
<circle cx="383.60384257153373" cy="365.40323149359705" r="10.569116982425543" fill="#000000" />
<circle cx="627.6709792894761" cy="149.5694931821435" r="18.053384432257786" fill="#000000" />
<circle cx="880.893311210041" cy="445.4750461100501" r="11.752982966187881" fill="#000000" />
<circle cx="522.5183264299715" cy="535.7888143304825" r="21.079796521705607" fill="#000000" />
<circle cx="555.4403798091921" cy="825.2628844876892" r="8.277553682927644" fill="#000000" />
<circle cx="565.2849685943061" cy="649.6357987661503" r="8.81400924260896" fill="#000000" />
<circle cx="1147.7699646683077" cy="427.0462825173297" r="20.17646257543919" fill="#000000" />
<circle cx="898.2541096679146" cy="536.326257398453" r="13.086078148904257" fill="#000000" />
<circle cx="1030.547473979875" cy="325.7219043604865" r="12.603978989054884" fill="#000000" />
<circle cx="892.5545771720441" cy="386.8285542040095" r="10.630089410769497" fill="#000000" />
<circle cx="805.8642472482366" cy="473.86294543494114" r="9.433034680136876" fill="#000000" />
<circle cx="797.3968538688499" cy="45.182206997879405" r="24.22248000549323" fill="#000000" />
<circle cx="1076.6121764288523" cy="530.5483553124952" r="20.171954495494248" fill="#000000" />
<circle cx="889.1963194354088" cy="293.0384185904127" r="17.829807322409124" fill="#000000" />
<circle cx="1083.2986037854087" cy="776.8713827473186" r="14.49361835269638" fill="#000000" />
<circle cx="543.7385623379648" cy="259.4140036593888" r="13.057661438604995" fill="#000000" />
<circle cx="1198.8148024019245" cy="674.2408450478782" r="18.3195069257047" fill="#000000" />
<circle cx="800.2615722151287" cy="829.6965021688906" r="8.804038361046516" fill="#000000" />
<circle cx="779.841769142422" cy="520.0906677976166" r="15.063780007642347" fill="#000000" />
<circle cx="654.3675633858516" cy="85.0363476124586" r="20.271689096317083" fill="#000000" />
<circle cx="1108.120924565912" cy="335.3157084560367" r="23.207116012980933" fill="#000000" />
<circle cx="415.20988017446365" cy="545.8693606606594" r="19.02176530493407" fill="#000000" />
<circle cx="866.1644880829833" cy="50.51708162323354" r="16.952119108664252" fill="#000000" />
<circle cx="612.8251361277439" cy="108.60695615474941" r="13.472534346021124" fill="#000000" />
<circle cx="578.6782720556805" cy="334.9461318773265" r="22.628271030892527" fill="#000000" />
<circle cx="479.52197016404534" cy="240.21538404076875" r="9.961017809627624" fill="#000000" />
<circle cx="1074.0561526856873" cy="638.7685913041555" r="14.88157267495031" fill="#000000" />
<circle cx="619.6629015069262" cy="480.7114010092923" r="11.061378156118982" fill="#000000" />
<circle cx="745.1449385150656" cy="325.16082704113137" r="24.346537798124828" fill="#000000" />
<circle cx="978.1218205191201" cy="887.1819072233168" r="9.892108888444524" fill="#000000" />
<circle cx="836.4240919451878" cy="411.4571922214617" r="9.23581601973491" fill="#000000" />
<circle cx="1156.8909335085846" cy="711.6759364740664" r="15.94385803738524" fill="#000000" />
<circle cx="565.6276247649099" cy="685.063206144069" r="23.52404550844395" fill="#000000" />
<circle cx="1024.3254472751419" cy="592.0658046180918" r="12.331966610467603" fill="#000000" />
<circle cx="627.6966799807394" cy="340.11202599351253" r="9.071946134097058" fill="#000000" />
<circle cx="478.92573812475206" cy="756.2960556832659" r="16.686526020418334" fill="#000000" />
<circle cx="788.4996737585143" cy="247.61396274883748" r="8.576645622968801" fill="#000000" />
<circle cx="615.3012895530396" cy="570.732934970046" r="11.355332780932464" fill="#000000" />
<circle cx="1110.0354242760782" cy="689.9544639371954" r="24.64163512826051" fill="#000000" />
<circle cx="1076.5256485699629" cy="823.0784163784499" r="15.699649455911825" fill="#000000" />
<circle cx="695.3444629209317" cy="278.3586799558095" r="10.723912041552108" fill="#000000" />
<circle cx="508.27069408094036" cy="208.71032249111096" r="11.425931794572293" fill="#000000" />
<circle cx="520.1662072842556" cy="402.8813254536966" r="14.364296104110776" fill="#000000" />
<circle cx="583.3536055885279" cy="833.6402976638856" r="8.713100651546036" fill="#000000" />
<circle cx="565.8835784472625" cy="373.80490449958984" r="9.03073722053564" fill="#000000" />
<circle cx="462.9321432436603" cy="639.0838419242757" r="13.771795356697249" fill="#000000" />
<circle cx="495.0717981705969" cy="370.1799169537762" r="10.099988694583258" fill="#000000" />
<circle cx="792.1332196899746" cy="335.5700835972724" r="8.707422011741546" fill="#000000" />
<circle cx="1042.1549748697248" cy="389.1631248778297" r="8.204408101379412" fill="#000000" />
<circle cx="1159.4032815901728" cy="328.9913015381678" r="12.429873962103295" fill="#000000" />
<circle cx="564.2480922181021" cy="161.18865505121437" r="17.577040574966937" fill="#000000" />
<circle cx="1101.0276045974597" cy="750.6823973409669" r="17.07652116980212" fill="#000000" />
<circle cx="890.1246675523048" cy="737.8263878839699" r="12.056381673933068" fill="#000000" />
<circle cx="424.8012615824881" cy="309.73619612992474" r="21.563010869107163" fill="#000000" />
<circle cx="962.6021951635494" cy="207.35555915974822" r="8.514759117910275" fill="#000000" />
<circle cx="1241.8071984272246" cy="361.32447989982563" r="10.25701124998294" fill="#000000" />
<circle cx="1099.824231146134" cy="422.43068227201536" r="18.559605469871027" fill="#000000" />
<circle cx="540.096872713789" cy="219.32592528118573" r="19.98938732943896" fill="#000000" />
<circle cx="860.0297684114759" cy="280.8208875887102" r="9.193048959494146" fill="#000000" />
<circle cx="1059.4876603176187" cy="413.6158687060616" r="9.961751730040639" fill="#000000" />
<circle cx="826.5319287888334" cy="847.7429080509517" r="20.046709871854098" fill="#000000" />
<circle cx="1154.1291524860565" cy="563.8092659761091" r="18.679039356048037" fill="#000000" />
<circle cx="1000.761506648315" cy="376.8578549024864" r="13.027926878734625" fill="#000000" />
<circle cx="675.2497772919014" cy="452.126526610647" r="16.660290151303982" fill="#000000" />
<circle cx="850.2195436667174" cy="505.3855264426717" r="8.355912466269439" fill="#000000" />
<circle cx="790.2026448623801" cy="430.8467644991951" r="10.42067731031983" fill="#000000" />
<circle cx="1112.8454414830314" cy="620.1207279317632" r="21.522384451488293" fill="#000000" />
<circle cx="932.0041957778061" cy="659.8106479848316" r="12.082214623695009" fill="#000000" />
<circle cx="913.443619316876" cy="375.39287341445464" r="10.258619398422585" fill="#000000" />
<circle cx="914.3448785727751" cy="122.15946296757159" r="12.259121833941531" fill="#000000" />
<circle cx="582.3626264364498" cy="503.43680660483807" r="10.943560693003548" fill="#000000" />
<circle cx="837.4410782015116" cy="33.87738523233821" r="13.660601037690128" fill="#000000" />
<circle cx="778.3918556225399" cy="676.9226133485876" r="17.173378759803825" fill="#000000" />
<circle cx="517.8706810799393" cy="281.6232857229691" r="13.60879071846701" fill="#000000" />
<circle cx="642.1726381342725" cy="463.977135230673" r="16.697897574472826" fill="#000000" />
<circle cx="1115.486923420972" cy="513.9577069726246" r="14.653385353679575" fill="#000000" />
<circle cx="897.4724945280847" cy="869.9304730018589" r="12.940764193205037" fill="#000000" />
<circle cx="1184.0234143858725" cy="415.6522174857059" r="14.28602252818374" fill="#000000" />
<circle cx="787.8666416923901" cy="105.23099786295222" r="14.235634131254905" fill="#000000" />
<circle cx="512.81872486534" cy="599.1758965358695" r="11.863451606000071" fill="#000000" />
<circle cx="976.6745083347189" cy="866.6970790440829" r="8.499646659807068" fill="#000000" />
<circle cx="780.7117491865966" cy="374.1157056035994" r="19.561294759290824" fill="#000000" />
<circle cx="1103.3110829630739" cy="823.8641706732868" r="9.778011026199572" fill="#000000" />
<circle cx="1165.8668778129345" cy="744.7282495679738" r="10.370865182954322" fill="#000000" />
<circle cx="724.8341227850706" cy="152.26529658212712" r="11.919465754510853" fill="#000000" />
<circle cx="764.3491489855584" cy="292.61044869581684" r="10.416120568042798" fill="#000000" />
<circle cx="658.8215510014957" cy="290.0990222005813" r="9.331821503409062" fill="#000000" />
<circle cx="787.5558152650851" cy="142.38230764856468" r="15.822344043005126" fill="#000000" />
<circle cx="524.1961056756547" cy="369.7979640735178" r="11.18765671535726" fill="#000000" />
<circle cx="1113.5372843772639" cy="173.40376448197134" r="23.67346607928959" fill="#000000" />
<circle cx="467.7936564086475" cy="218.53712071472603" r="10.823996252613505" fill="#000000" />
<circle cx="1201.9620893187114" cy="437.98274893706065" r="8.218698276954422" fill="#000000" />
<circle cx="1222.3657470991166" cy="568.0490243281403" r="9.759252346793385" fill="#000000" />
<circle cx="1235.5999371919147" cy="541.4874724198351" r="9.497943792993125" fill="#000000" />
<circle cx="1125.7999186178167" cy="210.01131077881269" r="12.245505523949916" fill="#000000" />
<circle cx="542.4159276431155" cy="765.5880940802771" r="13.39895791203299" fill="#000000" />
<circle cx="943.507170640936" cy="153.77274865968968" r="15.71481105813507" fill="#000000" />
<circle cx="910.1176145957589" cy="332.9631004641885" r="9.07266767537367" fill="#000000" />
<circle cx="499.13982213747755" cy="444.2148824923379" r="8.252953418563608" fill="#000000" />
<circle cx="704.2768768864735" cy="418.66997264403017" r="13.113377545234652" fill="#000000" />
<circle cx="923.7287080565894" cy="776.49221839757" r="16.662130943520086" fill="#000000" />
<circle cx="711.4499741678692" cy="735.1871371970371" r="8.608454940138131" fill="#000000" />
<circle cx="586.3305939259158" cy="857.4472737170602" r="14.823438692690535" fill="#000000" />
<circle cx="587.2030244027295" cy="630.410131601158" r="15.82434746221636" fill="#000000" />
<circle cx="555.9270601177216" cy="308.00533515986103" r="10.700449960264688" fill="#000000" />
<circle cx="946.8518325180122" cy="267.21354872399763" r="11.45842519721275" fill="#000000" />
<circle cx="1230.00455245673" cy="639.3598775144238" r="17.937978150484234" fill="#000000" />
<circle cx="500.0102485027984" cy="166.91351481227144" r="9.484578989769632" fill="#000000" />
<circle cx="736.9335518033364" cy="647.3057433906092" r="11.063937045543927" fill="#000000" />
<circle cx="857.2320759839406" cy="304.4158328958827" r="10.324587240144199" fill="#000000" />
<circle cx="981.3882321069285" cy="746.5094258120582" r="20.227322644041212" fill="#000000" />
<circle cx="1060.614219841384" cy="603.9575437066057" r="15.191040296496672" fill="#000000" />
<circle cx="944.2546202534385" cy="212.18069068329385" r="9.926642867271266" fill="#000000" />
<circle cx="878.895849370186" cy="172.2552927062257" r="9.553988304303843" fill="#000000" />
<circle cx="911.249258891766" cy="506.3003166882249" r="9.550128013776352" fill="#000000" />
<circle cx="1067.971741358879" cy="797.8316851067573" r="9.50023555609829" fill="#000000" />
<circle cx="834.9520146770388" cy="716.7355790483405" r="11.194130240084286" fill="#000000" />
<circle cx="720.5577154651081" cy="468.88361188745654" r="11.48124293565788" fill="#000000" />
<circle cx="986.4977379966892" cy="830.6458093262952" r="8.650778451210442" fill="#000000" />
<circle cx="818.9386575703486" cy="915.08825079599" r="10.734013941110334" fill="#000000" />
<circle cx="1135.1513894980244" cy="534.4909945263214" r="8.629383991181575" fill="#000000" />
<circle cx="649.2599584918414" cy="793.176378123444" r="8.702151238273483" fill="#000000" />
<circle cx="1081.4954285913923" cy="496.36237236274593" r="9.977831699507039" fill="#000000" />
<circle cx="664.4580166017166" cy="659.3506628000391" r="14.313378099462087" fill="#000000" />
<circle cx="545.9269325929894" cy="565.0021354008808" r="14.034528941188894" fill="#000000" />
<circle cx="435.66029111396824" cy="670.286510501589" r="14.822010094303227" fill="#000000" />
<circle cx="871.6218338950059" cy="257.57933327739613" r="13.113371395922737" fill="#000000" />
<circle cx="1168.322209787471" cy="606.3380468500688" r="10.089490614353828" fill="#000000" />
<circle cx="663.035823275374" cy="134.61961614780478" r="8.390174534960233" fill="#000000" />
<circle cx="948.4025978684526" cy="59.44954524139263" r="14.355207546994006" fill="#000000" />
<circle cx="619.3732605631607" cy="309.126308130345" r="15.0779789519848" fill="#000000" />
<circle cx="496.8244150121673" cy="261.98526816832555" r="12.173498471659972" fill="#000000" />
<circle cx="830.1426944920128" cy="83.90626081130131" r="23.289547190631204" fill="#000000" />
<circle cx="579.6492363630921" cy="759.9766051169363" r="11.5268040631577" fill="#000000" />
<circle cx="961.559050744654" cy="793.1728357989102" r="12.21409227469492" fill="#000000" />
<circle cx="1073.3209033725843" cy="172.58844504395591" r="13.533431061654" fill="#000000" />
<circle cx="903.2958036322223" cy="639.9679768885994" r="11.913686156641583" fill="#000000" />
<circle cx="904.6663174928875" cy="356.1338502600555" r="8.865189162763626" fill="#000000" />
<circle cx="1239.53100958994" cy="598.03241885763" r="15.524615495260964" fill="#000000" />
<circle cx="1048.923418555267" cy="148.48713622218247" r="10.329308506641125" fill="#000000" />
<circle cx="804.9932538980238" cy="348.56814462438376" r="8.717412653322205" fill="#000000" />
<circle cx="1203.7236165198453" cy="296.4662246893387" r="16.827152959811798" fill="#000000" />
<circle cx="935.2711505316017" cy="709.6143549573427" r="12.590522953791826" fill="#000000" />
<circle cx="934.9409033459301" cy="405.23982252130503" r="13.383587610533583" fill="#000000" />
<circle cx="842.7432052965044" cy="382.57511427762546" r="11.88787991136217" fill="#000000" />
<circle cx="745.657066401006" cy="598.0623901240315" r="11.590636686076449" fill="#000000" />
<circle cx="973.094866102417" cy="570.1193267011984" r="12.85538108175533" fill="#000000" />
<circle cx="801.4654635605254" cy="881.642669147785" r="12.533880264236775" fill="#000000" />
<circle cx="516.4252022574285" cy="795.9446659909634" r="9.272829555595084" fill="#000000" />
<circle cx="993.9117106395238" cy="490.06542553371645" r="8.376172380110027" fill="#000000" />
<circle cx="1120.2952405238664" cy="470.05135189953796" r="18.831099577385203" fill="#000000" />
<circle cx="1256.8516890694832" cy="526.8874411488167" r="12.462208554064077" fill="#000000" />
<circle cx="707.045452539104" cy="699.1649005895222" r="11.580363785579667" fill="#000000" />
<circle cx="1005.380306449649" cy="288.4684890830049" r="15.444596797394183" fill="#000000" />
<circle cx="1035.806331359314" cy="784.1800205477533" r="17.57118558204499" fill="#000000" />
<circle cx="1061.8957508146464" cy="326.5035093114461" r="8.690654418107998" fill="#000000" />
<circle cx="769.281909932847" cy="832.9674723702591" r="10.057406458400642" fill="#000000" />
<circle cx="466.8896488355436" cy="410.13914110291745" r="9.021854233471334" fill="#000000" />
<circle cx="1221.1048806946992" cy="347.2120398803756" r="11.05405757640024" fill="#000000" />
<circle cx="1167.0062792390718" cy="200.51890953494956" r="9.577103715333237" fill="#000000" />
<circle cx="456.12982976537216" cy="556.1624377125233" r="20.037930824051063" fill="#000000" />
<circle cx="922.7793808817701" cy="62.31013109531858" r="10.922143590141408" fill="#000000" />
<circle cx="477.6520848255937" cy="384.94438986767045" r="11.523548109340325" fill="#000000" />
<circle cx="760.2824334520097" cy="273.3259746917505" r="9.213649947474881" fill="#000000" />
<circle cx="958.0325347576229" cy="877.4389301797505" r="10.583429417360811" fill="#000000" />
<circle cx="1034.7770961739395" cy="483.8405593266717" r="10.234210230372312" fill="#000000" />
<circle cx="957.6028957756869" cy="341.90402054013595" r="8.223068794684531" fill="#000000" />
<circle cx="553.9544865198565" cy="397.0650243429966" r="9.337384207288364" fill="#000000" />
<circle cx="425.0561206933318" cy="274.947922367847" r="8.658591153110912" fill="#000000" />
<circle cx="472.17933179035475" cy="608.181505381962" r="9.112808453696092" fill="#000000" />
<circle cx="1039.2605583340694" cy="753.9367419986179" r="12.809281841200892" fill="#000000" />
<circle cx="471.3178797334528" cy="285.17080457741986" r="13.552482655079732" fill="#000000" />
<circle cx="693.5772585860798" cy="103.42831043859582" r="18.899513421438307" fill="#000000" />
<circle cx="557.6374583096713" cy="496.16961353068183" r="10.34638410625685" fill="#000000" />
<circle cx="1214.9169441626336" cy="382.8346227446219" r="13.93377493868661" fill="#000000" />
<circle cx="473.4762095754567" cy="678.223982911984" r="10.924288098087388" fill="#000000" />
<circle cx="1101.7138376897678" cy="371.4211073981636" r="9.069498959954817" fill="#000000" />
<circle cx="1032.4299068728874" cy="257.5086868840042" r="9.205363885434714" fill="#000000" />
<circle cx="654.2385620404461" cy="388.25971932511396" r="15.046180581630212" fill="#000000" />
<circle cx="954.9309091578004" cy="414.40565107501146" r="8.563827618384527" fill="#000000" />
<circle cx="648.5705573779205" cy="885.0098385299407" r="16.337245108017566" fill="#000000" />
<circle cx="978.0281964799941" cy="340.0777566336421" r="8.937896795164018" fill="#000000" />
<circle cx="1054.738006248833" cy="245.6502817410188" r="13.355925061909666" fill="#000000" />
<circle cx="940.7828274637563" cy="588.9292869266129" r="9.06264389550752" fill="#000000" />
<circle cx="519.9040367743053" cy="471.3301159089562" r="20.531184533584735" fill="#000000" />
<circle cx="1011.0742537712129" cy="872.3564673095264" r="13.427605815580506" fill="#000000" />
<circle cx="1004.6204916227771" cy="221.15566776598865" r="10.08936350935173" fill="#000000" />
<circle cx="440.4442262850554" cy="707.230469535863" r="22.353092066670413" fill="#000000" />
<circle cx="827.7945642323002" cy="127.90030402644459" r="17.203164648607448" fill="#000000" />
<circle cx="447.69353830938" cy="465.815820179326" r="9.375678578896066" fill="#000000" />
<circle cx="1170.0255779260647" cy="384.4763368869599" r="10.272074521962706" fill="#000000" />
<circle cx="417.57441585615976" cy="381.52411427301377" r="10.793255999935917" fill="#000000" />
<circle cx="933.103157990859" cy="460.4443087042729" r="11.354820559449886" fill="#000000" />
<circle cx="1173.9711878044648" cy="269.58683394035796" r="12.289358799156012" fill="#000000" />
<circle cx="912.1031273474354" cy="910.2434004338921" r="8.213057278663069" fill="#000000" />
<circle cx="529.7923484008056" cy="677.1290885962533" r="11.721012684830152" fill="#000000" />
<circle cx="374.2695683743016" cy="578.5681765915532" r="8.855580557221895" fill="#000000" />
<circle cx="692.4381228130674" cy="72.0351638893149" r="10.704813414617387" fill="#000000" />
<circle cx="589.12608940156" cy="436.72113024517273" r="14.977785908928528" fill="#000000" />
<circle cx="1022.2680942951993" cy="203.06352095701283" r="14.322973972120721" fill="#000000" />
<circle cx="856.3802366264584" cy="167.7626963720041" r="12.083602865011583" fill="#000000" />
<circle cx="1057.7403509830258" cy="348.06722185502036" r="12.545343557847968" fill="#000000" />
<circle cx="1123.9981352213963" cy="809.2643407149786" r="11.670916455855767" fill="#000000" />
<circle cx="633.6461037225167" cy="551.1064145741814" r="11.14791369765573" fill="#000000" />
<circle cx="850.4396663840544" cy="484.21026701467673" r="9.854054510420012" fill="#000000" />
<circle cx="737.5346457613858" cy="917.0260902447949" r="9.070353287980645" fill="#000000" />
<circle cx="1191.43084659528" cy="329.1984081559635" r="11.308970665077199" fill="#000000" />
<circle cx="562.5996094656352" cy="536.889740277409" r="11.070751068542968" fill="#000000" />
<circle cx="787.4013605747429" cy="799.0415304943087" r="13.40074621130006" fill="#000000" />
<circle cx="684.5996352679501" cy="633.0843188988808" r="8.561587105982904" fill="#000000" />
<circle cx="697.114792288661" cy="814.8754026699442" r="11.604722631699888" fill="#000000" />
<circle cx="933.0355582266457" cy="613.972234742404" r="12.061843363215456" fill="#000000" />
<circle cx="1185.6410049117703" cy="482.5266286001095" r="8.99636343884702" fill="#000000" />
<circle cx="539.2200612640529" cy="836.8325099442436" r="11.317487570023056" fill="#000000" />
<circle cx="767.0015049196518" cy="549.758598128913" r="8.91685428065145" fill="#000000" />
<circle cx="555.1504507555987" cy="286.84094702285824" r="8.166822537964697" fill="#000000" />
<circle cx="644.1756170549689" cy="186.76406204354072" r="12.390815740195759" fill="#000000" />
<circle cx="869.9336691361704" cy="381.0959804716829" r="12.019070366351633" fill="#000000" />
<circle cx="911.6949495252708" cy="309.1396091142062" r="9.463833443373622" fill="#000000" />
<circle cx="805.3253428941945" cy="302.9856615910463" r="9.273535994211295" fill="#000000" />
<circle cx="712.5951015167176" cy="296.62934493210315" r="11.71125760963611" fill="#000000" />
<circle cx="605.0487317304303" cy="87.16417953747066" r="9.189448435575443" fill="#000000" />
<circle cx="497.1051132268406" cy="648.6554889454894" r="10.757109847216157" fill="#000000" />
<circle cx="708.5410633193737" cy="445.2940252114141" r="12.034430748250134" fill="#000000" />
<circle cx="503.8688448130138" cy="719.5854149949492" r="8.884690607110642" fill="#000000" />
<circle cx="1230.6797296570605" cy="667.2170401500091" r="9.072727767332168" fill="#000000" />
<circle cx="1146.3067628223264" cy="191.00918817624722" r="11.849431387696818" fill="#000000" />
<circle cx="596.8190785174228" cy="296.80204718033303" r="8.856440817724343" fill="#000000" />
<circle cx="714.9600902903464" cy="39.991526032173795" r="8.54246966598574" fill="#000000" />
<circle cx="397.4221754353078" cy="400.63948331483175" r="14.17180623986544" fill="#000000" />
<circle cx="372.6509988646613" cy="435.59870910315516" r="8.156735982527184" fill="#000000" />
<circle cx="1088.071698656777" cy="146.8950629433499" r="12.740159812130601" fill="#000000" />
<circle cx="711.4968600731788" cy="760.5535340177703" r="8.807135128244163" fill="#000000" />
<circle cx="522.9249062193057" cy="151.44206327019305" r="8.157994243592118" fill="#000000" />
<circle cx="673.0882730166261" cy="535.0278666266664" r="13.018733131494571" fill="#000000" />
<circle cx="864.6536870691225" cy="223.18080565419893" r="10.64856431721335" fill="#000000" />
<circle cx="1123.8408150011817" cy="729.9282155543833" r="8.874133653982243" fill="#000000" />
<circle cx="750.3946419855778" cy="36.88814151908582" r="11.15517439853234" fill="#000000" />
<circle cx="525.4437040828977" cy="319.62949327077297" r="10.496970070334022" fill="#000000" />
<circle cx="1259.602857006984" cy="566.532895318904" r="8.84091199315292" fill="#000000" />
<circle cx="952.832671987501" cy="687.2874338399356" r="8.29352234945402" fill="#000000" />
<circle cx="779.389730672024" cy="861.1829218247549" r="15.463005275893915" fill="#000000" />
<circle cx="450.83438455711365" cy="248.2100945848642" r="17.309562799463777" fill="#000000" />
<circle cx="477.6420448250596" cy="441.264206835242" r="13.317293725671025" fill="#000000" />
<circle cx="996.0573579828621" cy="333.4950186921548" r="8.151449956576272" fill="#000000" />
<circle cx="682.3467865979402" cy="686.3228078999401" r="12.663488414683734" fill="#000000" />
<circle cx="940.3123103585858" cy="183.96272000786416" r="12.284051292088137" fill="#000000" />
<circle cx="882.6508558228307" cy="202.99121020787544" r="11.840767354674412" fill="#000000" />
<circle cx="1200.494083457564" cy="460.05495826921924" r="9.677936986713759" fill="#000000" />
<circle cx="604.0179989449355" cy="597.945647169342" r="8.455567006823838" fill="#000000" />
<circle cx="534.2180200464045" cy="340.4130648389005" r="8.723504361634625" fill="#000000" />
<circle cx="1231.966648962257" cy="321.8223771975298" r="9.081756673422891" fill="#000000" />
<circle cx="1048.7452716713487" cy="855.225191350112" r="22.837937417501763" fill="#000000" />
<circle cx="772.3330351308432" cy="711.8272878996273" r="8.55604423744887" fill="#000000" />
<circle cx="571.0952948301148" cy="411.3392813900594" r="8.970959547297912" fill="#000000" />
<circle cx="1038.823300454594" cy="99.99587268400393" r="9.23766140119959" fill="#000000" />
<circle cx="866.364544476035" cy="746.0202781370906" r="11.370946984211395" fill="#000000" />
<circle cx="1213.7508641424513" cy="595.9556199191097" r="8.712878626472087" fill="#000000" />
<circle cx="485.2276363223958" cy="190.11969562053326" r="14.165816384474267" fill="#000000" />
<circle cx="497.01667100105817" cy="620.7273297625843" r="8.897105157339642" fill="#000000" />
<circle cx="1192.5860524835468" cy="709.6632315476695" r="11.076999510417567" fill="#000000" />
<circle cx="657.6000994017539" cy="161.70260505411028" r="9.472860728787571" fill="#000000" />
<circle cx="1038.9934472288646" cy="436.18724087688867" r="12.674910798866556" fill="#000000" />
<circle cx="393.19375636669105" cy="620.5716701454658" r="10.728015902389101" fill="#000000" />
<circle cx="759.8505756843426" cy="501.91446104049095" r="9.427993490972511" fill="#000000" />
<circle cx="1195.2397921010577" cy="550.6946658636843" r="10.298351994212618" fill="#000000" />
<circle cx="541.888753198959" cy="789.8360648910043" r="9.640883720893179" fill="#000000" />
<circle cx="719.5075162898025" cy="525.9993399976888" r="12.059568747821" fill="#000000" />
<circle cx="946.3234283287459" cy="303.3611771177759" r="9.152063092182011" fill="#000000" />
<circle cx="755.6807989282066" cy="897.0031116129092" r="9.386472335077842" fill="#000000" />
<circle cx="1156.1847744234415" cy="218.73265076763641" r="11.167439798716908" fill="#000000" />
<circle cx="986.3756167515824" cy="418.6780942368792" r="11.276642490301825" fill="#000000" />
<circle cx="737.8931249928423" cy="291.3401148883643" r="8.875288370192939" fill="#000000" />
<circle cx="665.0329957802986" cy="365.54581376991877" r="9.981359577974025" fill="#000000" />
<circle cx="948.0290553777994" cy="238.27116342588567" r="9.495319452554504" fill="#000000" />
<circle cx="765.9436752792236" cy="84.44540386920562" r="14.510885824925573" fill="#000000" />
<circle cx="749.5500761806067" cy="177.6615015055665" r="10.86519360941448" fill="#000000" />
<circle cx="791.378144168166" cy="209.83485100977953" r="13.276831308338437" fill="#000000" />
<circle cx="974.0323536124904" cy="498.5488315799945" r="9.219108476368424" fill="#000000" />
<circle cx="1149.9239024363505" cy="361.8449509916966" r="9.469357903831785" fill="#000000" />
<circle cx="374.6797718432802" cy="505.4619938751889" r="11.3252334399752" fill="#000000" />
<circle cx="904.6580465181324" cy="665.7433679437625" r="12.078696535136217" fill="#000000" />
<circle cx="878.1896525756229" cy="649.5643680345747" r="9.611367879444087" fill="#000000" />
<circle cx="913.9098490290659" cy="715.6317830751257" r="9.550663550686798" fill="#000000" />
<circle cx="590.5328284340287" cy="398.2552989833954" r="9.34124618318399" fill="#000000" />
<circle cx="923.2361181437008" cy="594.0269982136523" r="8.893303948080515" fill="#000000" />
<circle cx="454.3720128887108" cy="738.3404043749232" r="8.304240742311084" fill="#000000" />
<circle cx="531.6478773010313" cy="503.8074245460406" r="9.426879226452352" fill="#000000" />
<circle cx="881.6807771125726" cy="408.00803827896766" r="8.339710783207666" fill="#000000" />
<circle cx="610.9266489619934" cy="231.45474546392035" r="19.175594940046068" fill="#000000" />
<circle cx="1267.326796501005" cy="435.53658760731884" r="10.221172270422258" fill="#000000" />
<circle cx="1270.3494080355968" cy="456.7568843393457" r="8.303232357370241" fill="#000000" />
<circle cx="1215.484304905013" cy="425.7646612861701" r="9.831268036075087" fill="#000000" />
<circle cx="871.1952176495199" cy="860.3315664834249" r="12.461579040202839" fill="#000000" />
<circle cx="557.1132235830512" cy="738.6535008405355" r="9.067440588728838" fill="#000000" />
<circle cx="602.7699038877557" cy="138.6646915784117" r="8.617249119554572" fill="#000000" />
<circle cx="445.4008739546334" cy="282.5749634731073" r="10.62115204208117" fill="#000000" />
<circle cx="697.8956451538767" cy="747.180880782406" r="8.363158335448771" fill="#000000" />
<circle cx="1043.5343789814196" cy="371.66335155910815" r="8.990455187599107" fill="#000000" />
<circle cx="515.8009834275063" cy="750.3482790433521" r="13.787101261284818" fill="#000000" />
<circle cx="901.5585452090784" cy="53.96781290028298" r="10.265829032368568" fill="#000000" />
<circle cx="694.8226180909417" cy="207.9210800088968" r="10.311891757380407" fill="#000000" />
<circle cx="960.2950150695928" cy="604.5469619920156" r="10.281205262119434" fill="#000000" />
<circle cx="709.2765466189979" cy="856.9691770774288" r="12.192541889085325" fill="#000000" />
<circle cx="619.9148280289194" cy="845.1599325707524" r="14.427791253636641" fill="#000000" />
<circle cx="1150.8389715664316" cy="782.7628940598224" r="10.313179303906892" fill="#000000" />
<circle cx="718.2537050502096" cy="780.8736005288004" r="10.09064783838027" fill="#000000" />
<circle cx="723.3712688299587" cy="551.0499668980157" r="8.5551368578739" fill="#000000" />
<circle cx="508.6420820248717" cy="503.36546729433564" r="8.868288035897526" fill="#000000" />
<circle cx="1049.3813344572413" cy="224.338895812783" r="8.210458423554238" fill="#000000" />
<circle cx="941.5712787643971" cy="903.7073788219127" r="15.137748863122887" fill="#000000" />
<circle cx="955.0476454661482" cy="129.72993395059848" r="8.265385955484625" fill="#000000" />
<circle cx="998.315414480315" cy="537.6843779103635" r="9.802383968625588" fill="#000000" />
<circle cx="923.2897166552426" cy="525.9947309525959" r="11.336737159759153" fill="#000000" />
<circle cx="953.5508003009855" cy="731.3708605608713" r="10.680280933916318" fill="#000000" />
<circle cx="477.65164062245844" cy="312.9695191611864" r="13.171933858356425" fill="#000000" />
<circle cx="996.9289683643071" cy="249.09056916325437" r="12.607981807730795" fill="#000000" />
<circle cx="474.96638882333673" cy="586.5329141866187" r="10.184643157141684" fill="#000000" />
<circle cx="564.312079713103" cy="193.12743436155938" r="11.50742168192562" fill="#000000" />
<circle cx="1090.7148753165427" cy="293.55026287736666" r="9.483265799811916" fill="#000000" />
<circle cx="806.2978580721054" cy="634.5186121649508" r="10.392829265178303" fill="#000000" />
<circle cx="504.211482069434" cy="577.2336617032184" r="10.530163004799077" fill="#000000" />
<circle cx="1013.8949270208427" cy="678.4704702800374" r="8.61955708505668" fill="#000000" />
<circle cx="1236.127912392573" cy="390.2410236762741" r="8.438715508988254" fill="#000000" />
<circle cx="1167.179211703221" cy="296.29283799322815" r="9.968263601257329" fill="#000000" />
<circle cx="1033.7682262662458" cy="128.92197167674937" r="11.894451140768453" fill="#000000" />
<circle cx="1019.293313393837" cy="614.5385587909946" r="10.537335531139018" fill="#000000" />
<circle cx="796.0541703287686" cy="927.2788343125571" r="8.834751379335891" fill="#000000" />
<circle cx="1197.2069078758973" cy="236.48609890001381" r="8.414216539326672" fill="#000000" />
<circle cx="1115.7848906033828" cy="255.608689781434" r="10.677435176521952" fill="#000000" />
<circle cx="933.1020795891015" cy="105.152788495768" r="9.025858677950664" fill="#000000" />
<circle cx="957.1889232066683" cy="768.7004971719138" r="12.201110823322207" fill="#000000" />
<circle cx="902.1757580740759" cy="260.1749264789264" r="10.771057807741167" fill="#000000" />
<circle cx="753.320112371547" cy="404.65641072886797" r="12.56108957433629" fill="#000000" />
<circle cx="496.7068988242455" cy="784.5713800970359" r="10.585046459226186" fill="#000000" />
<circle cx="1098.5516688974656" cy="392.7043995970666" r="8.736891410741181" fill="#000000" />
<circle cx="789.2338118271514" cy="277.03243737962646" r="11.9388287173142" fill="#000000" />
<circle cx="1259.568308593086" cy="408.55687275873186" r="12.791722057180497" fill="#000000" />
<circle cx="1085.1129466525422" cy="711.7130558586107" r="8.141511882991372" fill="#000000" />
<circle cx="732.1584020764888" cy="678.6657104129547" r="11.669439752029334" fill="#000000" />
<circle cx="610.4238058809616" cy="869.5722539107319" r="11.718893744426712" fill="#000000" />
<circle cx="1110.373847928631" cy="651.7074249986068" r="8.602308207460478" fill="#000000" />
<circle cx="482.0519826525529" cy="354.9158413067984" r="8.342706682586494" fill="#000000" />
<circle cx="455.7991558505232" cy="425.907033726089" r="9.097046517091306" fill="#000000" />
<circle cx="1016.2546517562706" cy="651.1878457464484" r="10.414915876715046" fill="#000000" />
<circle cx="983.053830525869" cy="71.25956466475674" r="16.05364259694679" fill="#000000" />
<circle cx="1012.5729409901247" cy="436.8728802573935" r="11.270733700771498" fill="#000000" />
<circle cx="434.4160948011017" cy="506.1953465261361" r="8.623185826054144" fill="#000000" />
<circle cx="834.2130579058927" cy="290.92638708119546" r="11.467290576972458" fill="#000000" />
<circle cx="589.6226810792491" cy="98.6197498851447" r="8.640173895625873" fill="#000000" />
<circle cx="597.3960060174379" cy="490.4122222379595" r="8.612149595356215" fill="#000000" />
<circle cx="884.4249335300447" cy="920.6976304924431" r="11.71999424184367" fill="#000000" />
<circle cx="572.9147869680844" cy="238.24062428768949" r="9.893064893172875" fill="#000000" />
<circle cx="500.93271445050704" cy="299.2838624221579" r="10.071856935138063" fill="#000000" />
<circle cx="1125.8489146610245" cy="403.7589472998354" r="8.906518164091032" fill="#000000" />
<circle cx="840.0845353012388" cy="562.406267439371" r="8.600607133077224" fill="#000000" />
<circle cx="738.6802811139554" cy="837.3727263762717" r="8.500546718397992" fill="#000000" />
<circle cx="665.7403671865966" cy="114.7739415157676" r="9.628784985226059" fill="#000000" />
<circle cx="1050.695258645176" cy="170.77394542370422" r="8.494332115909275" fill="#000000" />
<circle cx="406.47544071263013" cy="658.552783692816" r="14.853764138429863" fill="#000000" />
<circle cx="515.8738152491675" cy="821.0880940502436" r="8.151533879098013" fill="#000000" />
<circle cx="861.6067856720315" cy="660.6580435919416" r="8.331080606768694" fill="#000000" />
<circle cx="431.65657035405803" cy="479.2555061709979" r="10.99555035282999" fill="#000000" />
<circle cx="406.81616819107796" cy="508.11467514441614" r="15.685401052911168" fill="#000000" />
<circle cx="806.027372047876" cy="322.9711226292734" r="9.38083317546375" fill="#000000" />
<circle cx="485.3540984095266" cy="536.9552462227607" r="8.51576528964865" fill="#000000" />
<circle cx="1111.2830494411878" cy="781.2176706631753" r="9.787112571889365" fill="#000000" />
<circle cx="621.5347699391393" cy="749.8928507628075" r="10.863380463543432" fill="#000000" />
<circle cx="847.0745536375556" cy="524.3431755668248" r="8.621178979469097" fill="#000000" />
<circle cx="1096.7896068523848" cy="801.0979490068589" r="9.017415617531734" fill="#000000" />
<circle cx="600.9512215644145" cy="828.4072842076234" r="8.726073623068421" fill="#000000" />
<circle cx="1076.064880183912" cy="363.2290001246993" r="8.265791887523346" fill="#000000" />
<circle cx="691.3912371218396" cy="871.8822988592258" r="10.558974530520825" fill="#000000" />
<circle cx="1185.161254660799" cy="730.1636386814047" r="8.829528910892048" fill="#000000" />
<circle cx="929.0396119822947" cy="253.38364044437412" r="9.380525151719473" fill="#000000" />
<circle cx="1178.4260406253266" cy="231.65087373596563" r="8.833536561717725" fill="#000000" />
<circle cx="1208.1670079754526" cy="258.67765614981556" r="11.41400706199099" fill="#000000" />
<circle cx="816.0957742201674" cy="809.7772568829499" r="10.403264760600521" fill="#000000" />
<circle cx="629.463258614197" cy="585.0022303222979" r="8.260038261717586" fill="#000000" />
<circle cx="516.5365566961898" cy="659.3365327588122" r="8.850087512496863" fill="#000000" />
<circle cx="898.6097567450746" cy="612.8642531722282" r="13.812247812971911" fill="#000000" />
<circle cx="748.2967313754177" cy="665.9457972518628" r="8.40691912565302" fill="#000000" />
<circle cx="987.0650754723117" cy="356.22314492205834" r="8.333936084689318" fill="#000000" />
<circle cx="450.61317943636425" cy="615.7854185995722" r="11.146740925903087" fill="#000000" />
<circle cx="1163.38655980637" cy="627.100826725949" r="9.077875486996186" fill="#000000" />
<circle cx="507.89147963134593" cy="242.46853306987146" r="8.849693225820387" fill="#000000" />
<circle cx="1012.581257416663" cy="753.9249911019322" r="8.984688950150133" fill="#000000" />
<circle cx="696.652100834108" cy="721.2374400246262" r="8.522081833443673" fill="#000000" />
<circle cx="894.2219386142524" cy="147.91545814555764" r="8.189210398510093" fill="#000000" />
<circle cx="447.0714603795521" cy="383.7748141831146" r="8.520773252781279" fill="#000000" />
<circle cx="1072.0542276301442" cy="433.1306553209606" r="9.481256567573299" fill="#000000" />
<circle cx="753.414410713143" cy="688.0008690759041" r="9.796736233147987" fill="#000000" />
<circle cx="912.1617720961581" cy="692.3342566339911" r="9.115776043407537" fill="#000000" />
<circle cx="783.0731103429715" cy="321.10155020728797" r="8.308074368684045" fill="#000000" />
<circle cx="395.38750669806944" cy="440.51533098808517" r="10.051116727372419" fill="#000000" />
<circle cx="1008.309856971787" cy="319.44932441113656" r="9.610453942089055" fill="#000000" />
<circle cx="980.0126912836718" cy="716.2151829376106" r="9.309532375465695" fill="#000000" />
<circle cx="542.3671492585306" cy="128.27005919098923" r="9.450532134881668" fill="#000000" />
<circle cx="634.3008366960765" cy="771.1755732316602" r="9.978384321403903" fill="#000000" />
<circle cx="500.10694777380115" cy="804.9269564271112" r="8.879367700186075" fill="#000000" />
<circle cx="672.47327397859" cy="606.261462033602" r="8.883056847382527" fill="#000000" />
<circle cx="878.0661507200235" cy="629.6813844555513" r="10.134225224649585" fill="#000000" />
<circle cx="880.7338538422302" cy="550.3182581929312" r="8.774888809679352" fill="#000000" />
<circle cx="765.176925608994" cy="242.01657163037086" r="9.034728901767844" fill="#000000" />
<circle cx="795.5869735363372" cy="546.3640389083677" r="10.987723371305291" fill="#000000" />
<circle cx="891.9564432980275" cy="507.16636302278914" r="9.043161808894904" fill="#000000" />
<circle cx="676.0803881457696" cy="59.620301212029176" r="9.008092609769975" fill="#000000" />
<circle cx="730.2112346055875" cy="746.09251153331" r="8.17792647904597" fill="#000000" />
<circle cx="872.7344048584355" cy="889.2769369157811" r="10.501057522777565" fill="#000000" />
<circle cx="1030.4245331273955" cy="351.7237416744082" r="13.068094645611682" fill="#000000" />
<circle cx="652.5092498201009" cy="431.7933889349773" r="9.30092611717714" fill="#000000" />
<circle cx="599.0927585795364" cy="167.04605611367344" r="15.321825841843314" fill="#000000" />
<circle cx="655.1786273019862" cy="488.11600097344063" r="9.896096356961472" fill="#000000" />
<circle cx="376.72239034856534" cy="529.6228994900238" r="10.23005830270949" fill="#000000" />
<circle cx="822.6122270132704" cy="309.1200732059053" r="8.163588502011217" fill="#000000" />
<circle cx="1022.5438358997606" cy="176.6135311096691" r="8.332268441772042" fill="#000000" />
<circle cx="905.0589910934241" cy="185.41725839853365" r="8.241754651899674" fill="#000000" />
<circle cx="841.5846646288896" cy="932.2176124356592" r="8.353507271589216" fill="#000000" />
<circle cx="1170.3376685349795" cy="685.5573066993995" r="11.617587282349328" fill="#000000" />
<circle cx="397.6253496628345" cy="578.3801625602822" r="9.22806949693259" fill="#000000" />
<circle cx="970.3580909282471" cy="144.40965879300893" r="11.58920320692305" fill="#000000" />
<circle cx="1164.5886383156296" cy="765.9675735814499" r="10.23045971660924" fill="#000000" />
<circle cx="1088.4994397509886" cy="658.8858848757053" r="9.663644629353517" fill="#000000" />
<circle cx="531.9214663776453" cy="300.5650022582307" r="9.046697197977657" fill="#000000" />
<circle cx="610.8200110152289" cy="352.5421113886605" r="8.950311929820355" fill="#000000" />
<circle cx="620.7770464609115" cy="182.13911337919683" r="9.640980043212098" fill="#000000" />
<circle cx="960.7213849933448" cy="857.7391918131141" r="9.099020257217463" fill="#000000" />
<circle cx="1031.2020478833556" cy="723.1564332831609" r="11.99759354543159" fill="#000000" />
<circle cx="706.6678355977824" cy="170.76671843593795" r="9.662352177134583" fill="#000000" />
<circle cx="645.7473310971666" cy="307.48855782227525" r="11.249230170930524" fill="#000000" />
<circle cx="897.8979867743074" cy="762.8386520302006" r="10.116968036783273" fill="#000000" />
<circle cx="798.7749049823793" cy="455.4764239467608" r="9.548791121334302" fill="#000000" />
<circle cx="981.7718501697768" cy="212.57011492184603" r="9.918544828658279" fill="#000000" />
<circle cx="601.3665902956169" cy="690.1366708443289" r="9.286737444795683" fill="#000000" />
<circle cx="628.3095613011621" cy="795.6324723530469" r="9.301758280643467" fill="#000000" />
<circle cx="702.4942442078885" cy="392.4342843600788" r="9.19678153901354" fill="#000000" />
<circle cx="1096.368871553881" cy="270.9067225671929" r="11.080917086949308" fill="#000000" />
<circle cx="768.7272043648244" cy="423.75555293679275" r="8.18581171875303" fill="#000000" />
<circle cx="711.4780581042423" cy="81.07714225897183" r="8.643113781355492" fill="#000000" />
<circle cx="901.588444898486" cy="468.4704079717869" r="9.495937209451615" fill="#000000" />
<circle cx="546.3845252106553" cy="649.6022433839403" r="9.219283982359372" fill="#000000" />
<circle cx="720.9139156287722" cy="220.5671793003453" r="9.407998066142016" fill="#000000" />
<circle cx="844.5522889693948" cy="877.675075111202" r="11.291857153328024" fill="#000000" />
<circle cx="999.5067047018346" cy="693.1804040665168" r="9.4900047090169" fill="#000000" />
<circle cx="630.0347656665464" cy="655.4505194438401" r="8.789030206166164" fill="#000000" />
<circle cx="540.0036486935797" cy="813.186305276745" r="10.663894555339136" fill="#000000" />
<circle cx="929.2720561354836" cy="437.5605019443468" r="10.139031874252092" fill="#000000" />
<circle cx="904.5332056757921" cy="805.2782413585206" r="12.10207688289898" fill="#000000" />
<circle cx="964.2434497688973" cy="909.4397974140356" r="8.17475836922661" fill="#000000" />
<circle cx="938.3058650464938" cy="129.9257198479562" r="8.26323903025603" fill="#000000" />
<circle cx="1181.6976259767334" cy="213.26245993275643" r="9.519591458955999" fill="#000000" />
<circle cx="735.7355781187091" cy="627.0121574941272" r="9.232868036589457" fill="#000000" />
<circle cx="1228.5685380482632" cy="303.45300899698907" r="8.160373567837661" fill="#000000" />
<circle cx="572.7981188714693" cy="557.72135807507" r="10.46597358565199" fill="#000000" />
<circle cx="884.8030463907241" cy="78.66497437116624" r="11.106261715448962" fill="#000000" />
<circle cx="1013.9064199630359" cy="477.0828280794538" r="8.44208110443037" fill="#000000" />
<circle cx="635.341599826682" cy="118.22606458705553" r="9.259357337792235" fill="#000000" />
<circle cx="612.0724500935039" cy="501.6896531054717" r="8.773265543746009" fill="#000000" />
<circle cx="838.8051109826386" cy="814.3826509459739" r="11.260076405808885" fill="#000000" />
<circle cx="469.7153846563843" cy="727.9529039222876" r="9.030354891648932" fill="#000000" />
<circle cx="653.6037823919547" cy="688.1816460881661" r="10.628347420950563" fill="#000000" />
<circle cx="709.316935230342" cy="317.77909248196" r="8.71770399527982" fill="#000000" />
<circle cx="1256.9899158246697" cy="375.6111744700252" r="9.876303961168473" fill="#000000" />
<circle cx="675.7423816292136" cy="884.6025141316086" r="8.286488925039176" fill="#000000" />
<circle cx="772.0556935517047" cy="917.1662484392973" r="8.78963742668236" fill="#000000" />
<circle cx="455.02994154188514" cy="316.8527942704028" r="9.435394294717891" fill="#000000" />
<circle cx="772.6569234977873" cy="345.9318857312934" r="9.472608980367365" fill="#000000" />
<circle cx="551.1496185527096" cy="518.0735726125132" r="9.848806273482529" fill="#000000" />
<circle cx="801.3938267952441" cy="415.62720138904206" r="8.180143614081777" fill="#000000" />
<circle cx="867.710600054657" cy="468.4579465844012" r="8.27848548963163" fill="#000000" />
<circle cx="623.5289756916621" cy="279.9449727764639" r="10.931060838951526" fill="#000000" />
<circle cx="1234.0864867013752" cy="410.26566991375313" r="9.922162958057912" fill="#000000" />
<circle cx="519.1942871347368" cy="350.46864381978344" r="8.58801902436068" fill="#000000" />
<circle cx="1125.2261874455266" cy="588.8341087863312" r="10.828188993560827" fill="#000000" />
<circle cx="678.3957064927172" cy="291.20569217389607" r="8.707927952633524" fill="#000000" />
<circle cx="925.8952048933384" cy="832.500147337531" r="9.26306721732397" fill="#000000" />
<circle cx="680.4406786854478" cy="737.5477002636337" r="11.536365340306334" fill="#000000" />
<circle cx="704.8395530557021" cy="364.25069031742004" r="8.246636863603705" fill="#000000" />
<circle cx="1042.1855424874316" cy="274.0993279147384" r="8.341841852052378" fill="#000000" />
<circle cx="575.1010522321257" cy="301.6531858851595" r="8.626678222804195" fill="#000000" />
<circle cx="970.6403427996362" cy="261.30432552078554" r="8.899144217583995" fill="#000000" />
<circle cx="1147.9318293283998" cy="457.60975749749673" r="9.011847708738866" fill="#000000" />
<circle cx="450.915199013493" cy="445.58521903398264" r="9.035486197355532" fill="#000000" />
<circle cx="1020.6428792383622" cy="538.187252623295" r="10.495780793700154" fill="#000000" />
<circle cx="784.1400089834336" cy="303.46976009357655" r="8.67766088960023" fill="#000000" />
<circle cx="617.6720790158199" cy="456.1618845760703" r="8.709143469337649" fill="#000000" />
<circle cx="642.9320553953296" cy="350.8339728353201" r="8.797179487946645" fill="#000000" />
<circle cx="979.2564693955712" cy="98.01401656979232" r="8.316658022099917" fill="#000000" />
<circle cx="496.5516242683386" cy="395.55830234786094" r="8.676105396094307" fill="#000000" />
<circle cx="959.0294570703481" cy="624.3945709848783" r="8.416822486521596" fill="#000000" />
<circle cx="738.3728811794057" cy="456.6316037693606" r="8.848356262079891" fill="#000000" />
<circle cx="889.2761858010983" cy="37.1879866310141" r="9.388830947226245" fill="#000000" />
<circle cx="522.3276746310074" cy="432.25502774719814" r="12.959324996247362" fill="#000000" />
<circle cx="1126.640714347941" cy="232.77663363520867" r="8.832337008122765" fill="#000000" />
<circle cx="1001.9207278923079" cy="631.801177994137" r="9.774907693969793" fill="#000000" />
<circle cx="569.7598254075668" cy="278.96843347595416" r="8.203610885317623" fill="#000000" />
<circle cx="1092.326211765177" cy="450.4053831750518" r="9.727099642947957" fill="#000000" />
<circle cx="1078.6663620458885" cy="319.3238937408717" r="8.18243299612525" fill="#000000" />
<circle cx="397.2508114126519" cy="341.01549516566564" r="13.349319715053966" fill="#000000" />
<circle cx="828.9196496612836" cy="893.6041273586909" r="9.650457644944085" fill="#000000" />
<circle cx="623.4028997529858" cy="84.75553680138108" r="9.035586368977782" fill="#000000" />
<circle cx="707.8257741541926" cy="137.21338784443225" r="9.835539554132778" fill="#000000" />
<circle cx="1090.8282423695946" cy="469.91375929542625" r="8.380258912787827" fill="#000000" />
<circle cx="1063.790940010447" cy="757.5954566859284" r="8.492397983708395" fill="#000000" />
<circle cx="997.8267320073746" cy="470.9909395151298" r="8.463537339573033" fill="#000000" />
<circle cx="747.6226425177642" cy="555.4149007787696" r="8.945850634281863" fill="#000000" />
<circle cx="559.9358684376077" cy="781.2145064829833" r="9.19626485168428" fill="#000000" />
<circle cx="383.1624919642007" cy="601.0102144454727" r="10.920014846664646" fill="#000000" />
<circle cx="1064.326545906768" cy="487.16173681408117" r="8.684012753835026" fill="#000000" />
<circle cx="723.6160306982079" cy="502.77551043664283" r="8.944109132126998" fill="#000000" />
<circle cx="1195.921535858704" cy="607.6483230958825" r="10.114541908725418" fill="#000000" />
<circle cx="911.5923434683497" cy="887.9220256857162" r="9.224560223866956" fill="#000000" />
<circle cx="1177.8867794050757" cy="538.7684460950554" r="10.032490292570342" fill="#000000" />
<circle cx="809.5836067057143" cy="367.02048541108275" r="8.988933086158463" fill="#000000" />
<circle cx="602.1458206922575" cy="751.8728258395208" r="8.523617907218014" fill="#000000" />
<circle cx="491.5937810834351" cy="223.37992734468259" r="8.763293563469936" fill="#000000" />
<circle cx="573.5588393769133" cy="607.4551737006565" r="8.303234370285029" fill="#000000" />
<circle cx="997.3379647714378" cy="890.9705362465711" r="8.858772374040369" fill="#000000" />
<circle cx="1132.153991434143" cy="714.9196319834689" r="8.175192262652883" fill="#000000" />
<circle cx="865.2655902858037" cy="77.86541965988437" r="8.384936316316981" fill="#000000" />
<circle cx="622.0919342575154" cy="888.2902427367613" r="9.605728447135238" fill="#000000" />
<circle cx="515.6678001355745" cy="777.7121776889242" r="8.795418766401307" fill="#000000" />
<circle cx="567.0392606404508" cy="844.88282198414" r="8.156891720072188" fill="#000000" />
<circle cx="570.896708575642" cy="215.65454479292123" r="9.856414431504014" fill="#000000" />
<circle cx="1040.7776655044293" cy="531.4856801894045" r="8.557663556142053" fill="#000000" />
<circle cx="940.7846498818913" cy="538.7581050003862" r="9.478681610974434" fill="#000000" />
<circle cx="1216.1247748762285" cy="547.5925896637555" r="9.134269361461337" fill="#000000" />
<circle cx="1214.8749313368874" cy="614.6387618581748" r="9.822253028488422" fill="#000000" />
<circle cx="782.6559516001435" cy="231.7786387461623" r="8.149020885674462" fill="#000000" />
<circle cx="1066.8818849574918" cy="662.9914972789654" r="8.433366195672905" fill="#000000" />
<circle cx="1022.4734203716132" cy="388.9632886957145" r="10.897076253406127" fill="#000000" />
<circle cx="373.3780822431003" cy="413.318050298838" r="12.033479806960273" fill="#000000" />
<circle cx="1078.4438095403812" cy="678.4607511021028" r="8.765927841135483" fill="#000000" />
<circle cx="931.8905030751264" cy="682.165299674805" r="8.851947711873457" fill="#000000" />
<circle cx="932.0065429678693" cy="879.5562664909964" r="9.669062656478705" fill="#000000" />
<circle cx="1212.308737616535" cy="705.6104311669815" r="8.481365314446403" fill="#000000" />
<circle cx="558.5934153799003" cy="629.6323836506023" r="10.040487123491445" fill="#000000" />
<circle cx="675.2113573967177" cy="911.4405147788593" r="8.350140791139896" fill="#000000" />
<circle cx="1147.4494271019207" cy="751.3347588343793" r="8.184760424051301" fill="#000000" />
<circle cx="777.1218136894066" cy="729.1273042552588" r="8.886578900264535" fill="#000000" />
<circle cx="1233.6667260038923" cy="517.124890365914" r="8.401740881731657" fill="#000000" />
<circle cx="840.9805543668576" cy="226.02321269867008" r="10.589380682080671" fill="#000000" />
<circle cx="951.3212311308909" cy="83.98732649725889" r="9.311766494476803" fill="#000000" />
<circle cx="617.6859241824259" cy="678.8069201819487" r="8.670599852995725" fill="#000000" />
<circle cx="1204.7195174407443" cy="480.2532135353891" r="8.21886204415305" fill="#000000" />
<circle cx="705.9437630146508" cy="58.31958109817708" r="8.525475901082887" fill="#000000" />
<circle cx="983.3300124044925" cy="115.53388917052376" r="9.201599275314772" fill="#000000" />
<circle cx="524.6906758541188" cy="249.57900599945532" r="8.245604609617379" fill="#000000" />
<circle cx="756.7971246712417" cy="927.6175820081484" r="8.167515521269502" fill="#000000" />
<circle cx="644.0613755526831" cy="811.2683878192715" r="9.039624036601555" fill="#000000" />
<circle cx="663.3496429324284" cy="808.0778748286074" r="10.264345993182161" fill="#000000" />
<circle cx="1008.8527382233758" cy="344.86118485350335" r="8.81181972649712" fill="#000000" />
<circle cx="1223.4917380829838" cy="452.46517315195103" r="8.613915925318206" fill="#000000" />
<circle cx="894.8719348544498" cy="110.38249416708504" r="9.570422849489274" fill="#000000" />
<circle cx="1129.5605258159824" cy="362.25331695269335" r="9.137123785109742" fill="#000000" />
<circle cx="679.8514580958188" cy="228.84594752848832" r="8.756481977313836" fill="#000000" />
<circle cx="807.3700252231076" cy="516.7710921565082" r="8.760660770110002" fill="#000000" />
<circle cx="1101.0363951933136" cy="229.08208753360586" r="8.788631088241617" fill="#000000" />
<circle cx="911.7665749787317" cy="398.87799149571106" r="9.37655430765476" fill="#000000" />
<circle cx="1180.1506800407533" cy="248.81487910512502" r="8.366752769058271" fill="#000000" />
<circle cx="610.0822526539097" cy="613.8115562058847" r="8.14903144850718" fill="#000000" />
<circle cx="851.5074793499325" cy="147.4732957978219" r="8.272720542553065" fill="#000000" />
<circle cx="979.264912074435" cy="623.4760630947096" r="8.509236004819368" fill="#000000" />
<circle cx="985.6531815924503" cy="397.4533784855401" r="8.519911227289745" fill="#000000" />
<circle cx="1087.328397886731" cy="118.07151103045015" r="9.309794450373959" fill="#000000" />
<circle cx="845.4772817738545" cy="756.9408286254559" r="9.334733170807427" fill="#000000" />
<circle cx="979.9189491687388" cy="478.19240573338146" r="9.141095672712346" fill="#000000" />
</svg>